<mxfile host="app.diagrams.net" agent="Mozilla/5.0 (Windows NT 10.0; Win64; x64) AppleWebKit/537.36 (KHTML, like Gecko) Chrome/130.0.0.0 Safari/537.36" version="24.8.6">
  <diagram name="Страница — 1" id="elAC1jL7qKDmC1zYYI48">
    <mxGraphModel dx="1180" dy="746" grid="1" gridSize="10" guides="1" tooltips="1" connect="1" arrows="1" fold="1" page="1" pageScale="1" pageWidth="827" pageHeight="1169" math="0" shadow="0">
      <root>
        <mxCell id="0" />
        <mxCell id="1" parent="0" />
        <mxCell id="Sf9USXBAgHXZiCnGcC-k-5" value="" style="edgeStyle=orthogonalEdgeStyle;rounded=0;orthogonalLoop=1;jettySize=auto;html=1;" parent="1" source="Sf9USXBAgHXZiCnGcC-k-1" target="Sf9USXBAgHXZiCnGcC-k-2" edge="1">
          <mxGeometry relative="1" as="geometry" />
        </mxCell>
        <mxCell id="Sf9USXBAgHXZiCnGcC-k-1" value="Початок" style="rounded=1;whiteSpace=wrap;html=1;" parent="1" vertex="1">
          <mxGeometry x="320" y="130" width="120" height="60" as="geometry" />
        </mxCell>
        <mxCell id="Sf9USXBAgHXZiCnGcC-k-6" value="" style="edgeStyle=orthogonalEdgeStyle;rounded=0;orthogonalLoop=1;jettySize=auto;html=1;" parent="1" source="Sf9USXBAgHXZiCnGcC-k-2" target="Sf9USXBAgHXZiCnGcC-k-3" edge="1">
          <mxGeometry relative="1" as="geometry" />
        </mxCell>
        <mxCell id="Sf9USXBAgHXZiCnGcC-k-2" value="A, B" style="shape=parallelogram;perimeter=parallelogramPerimeter;whiteSpace=wrap;html=1;fixedSize=1;" parent="1" vertex="1">
          <mxGeometry x="320" y="210" width="120" height="60" as="geometry" />
        </mxCell>
        <mxCell id="Sf9USXBAgHXZiCnGcC-k-7" value="" style="edgeStyle=orthogonalEdgeStyle;rounded=0;orthogonalLoop=1;jettySize=auto;html=1;" parent="1" source="Sf9USXBAgHXZiCnGcC-k-3" target="Sf9USXBAgHXZiCnGcC-k-4" edge="1">
          <mxGeometry relative="1" as="geometry" />
        </mxCell>
        <mxCell id="Sf9USXBAgHXZiCnGcC-k-3" value="count=0" style="rounded=0;whiteSpace=wrap;html=1;" parent="1" vertex="1">
          <mxGeometry x="320" y="300" width="120" height="60" as="geometry" />
        </mxCell>
        <mxCell id="Sf9USXBAgHXZiCnGcC-k-9" value="" style="edgeStyle=orthogonalEdgeStyle;rounded=0;orthogonalLoop=1;jettySize=auto;html=1;" parent="1" source="Sf9USXBAgHXZiCnGcC-k-4" target="Sf9USXBAgHXZiCnGcC-k-8" edge="1">
          <mxGeometry relative="1" as="geometry" />
        </mxCell>
        <mxCell id="Sf9USXBAgHXZiCnGcC-k-4" value="cur = A" style="rounded=0;whiteSpace=wrap;html=1;" parent="1" vertex="1">
          <mxGeometry x="320" y="380" width="120" height="60" as="geometry" />
        </mxCell>
        <mxCell id="Sf9USXBAgHXZiCnGcC-k-11" value="" style="edgeStyle=orthogonalEdgeStyle;rounded=0;orthogonalLoop=1;jettySize=auto;html=1;" parent="1" source="Sf9USXBAgHXZiCnGcC-k-8" target="Sf9USXBAgHXZiCnGcC-k-10" edge="1">
          <mxGeometry relative="1" as="geometry" />
        </mxCell>
        <mxCell id="Sf9USXBAgHXZiCnGcC-k-18" style="edgeStyle=orthogonalEdgeStyle;rounded=0;orthogonalLoop=1;jettySize=auto;html=1;" parent="1" source="Sf9USXBAgHXZiCnGcC-k-8" target="Sf9USXBAgHXZiCnGcC-k-19" edge="1">
          <mxGeometry relative="1" as="geometry">
            <mxPoint x="550" y="500" as="targetPoint" />
          </mxGeometry>
        </mxCell>
        <mxCell id="Sf9USXBAgHXZiCnGcC-k-8" value="cur&amp;lt;=B" style="rhombus;whiteSpace=wrap;html=1;" parent="1" vertex="1">
          <mxGeometry x="310" y="460" width="140" height="80" as="geometry" />
        </mxCell>
        <mxCell id="Sf9USXBAgHXZiCnGcC-k-12" value="Так" style="edgeStyle=orthogonalEdgeStyle;rounded=0;orthogonalLoop=1;jettySize=auto;html=1;" parent="1" source="Sf9USXBAgHXZiCnGcC-k-10" target="Sf9USXBAgHXZiCnGcC-k-13" edge="1">
          <mxGeometry relative="1" as="geometry">
            <mxPoint x="190" y="560" as="targetPoint" />
          </mxGeometry>
        </mxCell>
        <mxCell id="Sf9USXBAgHXZiCnGcC-k-14" value="Ні" style="edgeStyle=orthogonalEdgeStyle;rounded=0;orthogonalLoop=1;jettySize=auto;html=1;entryX=-0.008;entryY=0.65;entryDx=0;entryDy=0;entryPerimeter=0;" parent="1" source="Sf9USXBAgHXZiCnGcC-k-10" target="Sf9USXBAgHXZiCnGcC-k-15" edge="1">
          <mxGeometry relative="1" as="geometry">
            <mxPoint x="60" y="680" as="targetPoint" />
            <Array as="points">
              <mxPoint x="80" y="500" />
              <mxPoint x="80" y="689" />
            </Array>
          </mxGeometry>
        </mxCell>
        <mxCell id="Sf9USXBAgHXZiCnGcC-k-10" value="Якщо (A*B)%==0" style="rhombus;whiteSpace=wrap;html=1;" parent="1" vertex="1">
          <mxGeometry x="120" y="465" width="140" height="70" as="geometry" />
        </mxCell>
        <mxCell id="Sf9USXBAgHXZiCnGcC-k-16" value="" style="edgeStyle=orthogonalEdgeStyle;rounded=0;orthogonalLoop=1;jettySize=auto;html=1;" parent="1" source="Sf9USXBAgHXZiCnGcC-k-13" target="Sf9USXBAgHXZiCnGcC-k-15" edge="1">
          <mxGeometry relative="1" as="geometry" />
        </mxCell>
        <mxCell id="Sf9USXBAgHXZiCnGcC-k-13" value="count+=1" style="rounded=0;whiteSpace=wrap;html=1;" parent="1" vertex="1">
          <mxGeometry x="130" y="560" width="120" height="60" as="geometry" />
        </mxCell>
        <mxCell id="Sf9USXBAgHXZiCnGcC-k-17" style="edgeStyle=orthogonalEdgeStyle;rounded=0;orthogonalLoop=1;jettySize=auto;html=1;entryX=0.5;entryY=1;entryDx=0;entryDy=0;" parent="1" source="Sf9USXBAgHXZiCnGcC-k-15" target="Sf9USXBAgHXZiCnGcC-k-8" edge="1">
          <mxGeometry relative="1" as="geometry" />
        </mxCell>
        <mxCell id="Sf9USXBAgHXZiCnGcC-k-15" value="cur+=1" style="rounded=0;whiteSpace=wrap;html=1;" parent="1" vertex="1">
          <mxGeometry x="130" y="650" width="120" height="60" as="geometry" />
        </mxCell>
        <mxCell id="Sf9USXBAgHXZiCnGcC-k-21" style="edgeStyle=orthogonalEdgeStyle;rounded=0;orthogonalLoop=1;jettySize=auto;html=1;entryX=0.5;entryY=0;entryDx=0;entryDy=0;" parent="1" source="Sf9USXBAgHXZiCnGcC-k-19" target="Sf9USXBAgHXZiCnGcC-k-20" edge="1">
          <mxGeometry relative="1" as="geometry" />
        </mxCell>
        <mxCell id="Sf9USXBAgHXZiCnGcC-k-19" value="count" style="shape=parallelogram;perimeter=parallelogramPerimeter;whiteSpace=wrap;html=1;fixedSize=1;" parent="1" vertex="1">
          <mxGeometry x="460" y="470" width="120" height="60" as="geometry" />
        </mxCell>
        <mxCell id="Sf9USXBAgHXZiCnGcC-k-20" value="Кінець" style="rounded=1;whiteSpace=wrap;html=1;" parent="1" vertex="1">
          <mxGeometry x="460" y="570" width="120" height="60" as="geometry" />
        </mxCell>
        <mxCell id="Sf9USXBAgHXZiCnGcC-k-25" value="" style="edgeStyle=orthogonalEdgeStyle;rounded=0;orthogonalLoop=1;jettySize=auto;html=1;" parent="1" source="Sf9USXBAgHXZiCnGcC-k-23" target="Sf9USXBAgHXZiCnGcC-k-24" edge="1">
          <mxGeometry relative="1" as="geometry" />
        </mxCell>
        <mxCell id="Sf9USXBAgHXZiCnGcC-k-23" value="Початок" style="rounded=1;whiteSpace=wrap;html=1;" parent="1" vertex="1">
          <mxGeometry x="1280" y="120" width="120" height="60" as="geometry" />
        </mxCell>
        <mxCell id="Sf9USXBAgHXZiCnGcC-k-27" value="" style="edgeStyle=orthogonalEdgeStyle;rounded=0;orthogonalLoop=1;jettySize=auto;html=1;" parent="1" source="Sf9USXBAgHXZiCnGcC-k-24" target="Sf9USXBAgHXZiCnGcC-k-26" edge="1">
          <mxGeometry relative="1" as="geometry" />
        </mxCell>
        <mxCell id="Sf9USXBAgHXZiCnGcC-k-24" value="a1, a2, a3" style="shape=parallelogram;perimeter=parallelogramPerimeter;whiteSpace=wrap;html=1;fixedSize=1;" parent="1" vertex="1">
          <mxGeometry x="1280" y="200" width="120" height="60" as="geometry" />
        </mxCell>
        <mxCell id="Sf9USXBAgHXZiCnGcC-k-29" value="" style="edgeStyle=orthogonalEdgeStyle;rounded=0;orthogonalLoop=1;jettySize=auto;html=1;" parent="1" source="Sf9USXBAgHXZiCnGcC-k-26" target="Sf9USXBAgHXZiCnGcC-k-28" edge="1">
          <mxGeometry relative="1" as="geometry" />
        </mxCell>
        <mxCell id="Sf9USXBAgHXZiCnGcC-k-26" value="first, last, i1" style="rounded=0;whiteSpace=wrap;html=1;" parent="1" vertex="1">
          <mxGeometry x="1280" y="280" width="120" height="60" as="geometry" />
        </mxCell>
        <mxCell id="Sf9USXBAgHXZiCnGcC-k-31" value="" style="edgeStyle=orthogonalEdgeStyle;rounded=0;orthogonalLoop=1;jettySize=auto;html=1;" parent="1" source="Sf9USXBAgHXZiCnGcC-k-28" target="Sf9USXBAgHXZiCnGcC-k-30" edge="1">
          <mxGeometry relative="1" as="geometry" />
        </mxCell>
        <mxCell id="Sf9USXBAgHXZiCnGcC-k-75" value="" style="edgeStyle=orthogonalEdgeStyle;rounded=0;orthogonalLoop=1;jettySize=auto;html=1;" parent="1" source="Sf9USXBAgHXZiCnGcC-k-28" target="Sf9USXBAgHXZiCnGcC-k-74" edge="1">
          <mxGeometry relative="1" as="geometry" />
        </mxCell>
        <mxCell id="Sf9USXBAgHXZiCnGcC-k-28" value="i1&amp;lt;=9" style="rhombus;whiteSpace=wrap;html=1;" parent="1" vertex="1">
          <mxGeometry x="1255" y="370" width="170" height="80" as="geometry" />
        </mxCell>
        <mxCell id="Sf9USXBAgHXZiCnGcC-k-33" value="" style="edgeStyle=orthogonalEdgeStyle;rounded=0;orthogonalLoop=1;jettySize=auto;html=1;" parent="1" source="Sf9USXBAgHXZiCnGcC-k-30" target="Sf9USXBAgHXZiCnGcC-k-32" edge="1">
          <mxGeometry relative="1" as="geometry" />
        </mxCell>
        <mxCell id="Sf9USXBAgHXZiCnGcC-k-30" value="i2=0" style="rounded=0;whiteSpace=wrap;html=1;" parent="1" vertex="1">
          <mxGeometry x="1460" y="380" width="120" height="60" as="geometry" />
        </mxCell>
        <mxCell id="Sf9USXBAgHXZiCnGcC-k-35" value="Yes" style="edgeStyle=orthogonalEdgeStyle;rounded=0;orthogonalLoop=1;jettySize=auto;html=1;" parent="1" source="Sf9USXBAgHXZiCnGcC-k-32" target="Sf9USXBAgHXZiCnGcC-k-34" edge="1">
          <mxGeometry relative="1" as="geometry" />
        </mxCell>
        <mxCell id="Sf9USXBAgHXZiCnGcC-k-71" value="No" style="edgeStyle=orthogonalEdgeStyle;rounded=0;orthogonalLoop=1;jettySize=auto;html=1;entryX=0;entryY=0.5;entryDx=0;entryDy=0;" parent="1" source="Sf9USXBAgHXZiCnGcC-k-32" target="Sf9USXBAgHXZiCnGcC-k-59" edge="1">
          <mxGeometry relative="1" as="geometry">
            <mxPoint x="1650" y="410" as="targetPoint" />
            <Array as="points">
              <mxPoint x="1620" y="480" />
              <mxPoint x="1620" y="450" />
            </Array>
          </mxGeometry>
        </mxCell>
        <mxCell id="Sf9USXBAgHXZiCnGcC-k-32" value="i2&amp;lt;=9" style="rhombus;whiteSpace=wrap;html=1;rounded=0;" parent="1" vertex="1">
          <mxGeometry x="1435" y="460" width="170" height="80" as="geometry" />
        </mxCell>
        <mxCell id="Sf9USXBAgHXZiCnGcC-k-37" value="" style="edgeStyle=orthogonalEdgeStyle;rounded=0;orthogonalLoop=1;jettySize=auto;html=1;" parent="1" source="Sf9USXBAgHXZiCnGcC-k-34" target="Sf9USXBAgHXZiCnGcC-k-36" edge="1">
          <mxGeometry relative="1" as="geometry" />
        </mxCell>
        <mxCell id="Sf9USXBAgHXZiCnGcC-k-34" value="i3=0" style="whiteSpace=wrap;html=1;rounded=0;" parent="1" vertex="1">
          <mxGeometry x="1280" y="470" width="120" height="60" as="geometry" />
        </mxCell>
        <mxCell id="Sf9USXBAgHXZiCnGcC-k-39" value="Yes" style="edgeStyle=orthogonalEdgeStyle;rounded=0;orthogonalLoop=1;jettySize=auto;html=1;" parent="1" source="Sf9USXBAgHXZiCnGcC-k-36" target="Sf9USXBAgHXZiCnGcC-k-38" edge="1">
          <mxGeometry relative="1" as="geometry">
            <Array as="points">
              <mxPoint x="1510" y="630" />
            </Array>
          </mxGeometry>
        </mxCell>
        <mxCell id="Sf9USXBAgHXZiCnGcC-k-67" value="No" style="edgeStyle=orthogonalEdgeStyle;rounded=0;orthogonalLoop=1;jettySize=auto;html=1;" parent="1" source="Sf9USXBAgHXZiCnGcC-k-36" target="Sf9USXBAgHXZiCnGcC-k-68" edge="1">
          <mxGeometry relative="1" as="geometry">
            <mxPoint x="1590" y="600" as="targetPoint" />
          </mxGeometry>
        </mxCell>
        <mxCell id="Sf9USXBAgHXZiCnGcC-k-36" value="i3&amp;lt;=9" style="rhombus;whiteSpace=wrap;html=1;" parent="1" vertex="1">
          <mxGeometry x="1270" y="560" width="140" height="80" as="geometry" />
        </mxCell>
        <mxCell id="Sf9USXBAgHXZiCnGcC-k-42" value="" style="edgeStyle=orthogonalEdgeStyle;rounded=0;orthogonalLoop=1;jettySize=auto;html=1;entryX=0.5;entryY=0;entryDx=0;entryDy=0;" parent="1" source="Sf9USXBAgHXZiCnGcC-k-38" target="Sf9USXBAgHXZiCnGcC-k-43" edge="1">
          <mxGeometry relative="1" as="geometry">
            <mxPoint x="1520" y="660" as="targetPoint" />
          </mxGeometry>
        </mxCell>
        <mxCell id="Sf9USXBAgHXZiCnGcC-k-38" value="count = i1 * 100 + i2 * 10 + i3" style="whiteSpace=wrap;html=1;" parent="1" vertex="1">
          <mxGeometry x="1425" y="740" width="170" height="60" as="geometry" />
        </mxCell>
        <mxCell id="Sf9USXBAgHXZiCnGcC-k-46" value="Yes" style="edgeStyle=orthogonalEdgeStyle;rounded=0;orthogonalLoop=1;jettySize=auto;html=1;" parent="1" source="Sf9USXBAgHXZiCnGcC-k-43" target="Sf9USXBAgHXZiCnGcC-k-45" edge="1">
          <mxGeometry relative="1" as="geometry" />
        </mxCell>
        <mxCell id="Sf9USXBAgHXZiCnGcC-k-47" value="No" style="edgeStyle=orthogonalEdgeStyle;rounded=0;orthogonalLoop=1;jettySize=auto;html=1;" parent="1" source="Sf9USXBAgHXZiCnGcC-k-43" target="Sf9USXBAgHXZiCnGcC-k-48" edge="1">
          <mxGeometry relative="1" as="geometry">
            <mxPoint x="1340" y="700" as="targetPoint" />
          </mxGeometry>
        </mxCell>
        <mxCell id="Sf9USXBAgHXZiCnGcC-k-43" value="&lt;span style=&quot;color: rgb(0, 0, 0); font-family: Helvetica; font-size: 12px; font-style: normal; font-variant-ligatures: normal; font-variant-caps: normal; font-weight: 400; letter-spacing: normal; orphans: 2; text-align: center; text-indent: 0px; text-transform: none; widows: 2; word-spacing: 0px; -webkit-text-stroke-width: 0px; white-space: normal; background-color: rgb(251, 251, 251); text-decoration-thickness: initial; text-decoration-style: initial; text-decoration-color: initial; display: inline !important; float: none;&quot;&gt;count &amp;gt; a1*100+a2*10+a3&lt;/span&gt;" style="rhombus;whiteSpace=wrap;html=1;" parent="1" vertex="1">
          <mxGeometry x="1400" y="830" width="220" height="80" as="geometry" />
        </mxCell>
        <mxCell id="Sf9USXBAgHXZiCnGcC-k-73" style="edgeStyle=orthogonalEdgeStyle;rounded=0;orthogonalLoop=1;jettySize=auto;html=1;entryX=0.25;entryY=1;entryDx=0;entryDy=0;" parent="1" source="Sf9USXBAgHXZiCnGcC-k-45" target="Sf9USXBAgHXZiCnGcC-k-57" edge="1">
          <mxGeometry relative="1" as="geometry">
            <Array as="points">
              <mxPoint x="1800" y="700" />
              <mxPoint x="1800" y="930" />
              <mxPoint x="930" y="930" />
            </Array>
          </mxGeometry>
        </mxCell>
        <mxCell id="Sf9USXBAgHXZiCnGcC-k-45" value="break" style="whiteSpace=wrap;html=1;" parent="1" vertex="1">
          <mxGeometry x="1654" y="670" width="120" height="60" as="geometry" />
        </mxCell>
        <mxCell id="Sf9USXBAgHXZiCnGcC-k-52" value="Yes" style="edgeStyle=orthogonalEdgeStyle;rounded=0;orthogonalLoop=1;jettySize=auto;html=1;" parent="1" source="Sf9USXBAgHXZiCnGcC-k-48" target="Sf9USXBAgHXZiCnGcC-k-51" edge="1">
          <mxGeometry relative="1" as="geometry" />
        </mxCell>
        <mxCell id="Sf9USXBAgHXZiCnGcC-k-48" value="first == 0" style="rhombus;whiteSpace=wrap;html=1;" parent="1" vertex="1">
          <mxGeometry x="1295" y="660" width="90" height="80" as="geometry" />
        </mxCell>
        <mxCell id="Sf9USXBAgHXZiCnGcC-k-53" value="Yes" style="edgeStyle=orthogonalEdgeStyle;rounded=0;orthogonalLoop=1;jettySize=auto;html=1;" parent="1" source="Sf9USXBAgHXZiCnGcC-k-51" target="Sf9USXBAgHXZiCnGcC-k-54" edge="1">
          <mxGeometry relative="1" as="geometry">
            <mxPoint x="1170" y="770" as="targetPoint" />
          </mxGeometry>
        </mxCell>
        <mxCell id="Sf9USXBAgHXZiCnGcC-k-56" value="No" style="edgeStyle=orthogonalEdgeStyle;rounded=0;orthogonalLoop=1;jettySize=auto;html=1;entryX=0.5;entryY=1;entryDx=0;entryDy=0;exitX=0.5;exitY=0;exitDx=0;exitDy=0;" parent="1" source="Sf9USXBAgHXZiCnGcC-k-48" target="Sf9USXBAgHXZiCnGcC-k-55" edge="1">
          <mxGeometry relative="1" as="geometry">
            <mxPoint x="1150" y="630" as="targetPoint" />
            <Array as="points">
              <mxPoint x="1340" y="650" />
              <mxPoint x="1120" y="650" />
            </Array>
          </mxGeometry>
        </mxCell>
        <mxCell id="Sf9USXBAgHXZiCnGcC-k-65" value="No" style="edgeStyle=orthogonalEdgeStyle;rounded=0;orthogonalLoop=1;jettySize=auto;html=1;entryX=1;entryY=0.5;entryDx=0;entryDy=0;" parent="1" source="Sf9USXBAgHXZiCnGcC-k-51" target="Sf9USXBAgHXZiCnGcC-k-57" edge="1">
          <mxGeometry relative="1" as="geometry">
            <Array as="points">
              <mxPoint x="1050" y="700" />
              <mxPoint x="1050" y="700" />
            </Array>
          </mxGeometry>
        </mxCell>
        <mxCell id="Sf9USXBAgHXZiCnGcC-k-51" value="i1 &gt;= 5 or i2 &gt;= 5 or i3 &gt;= 5" style="rhombus;whiteSpace=wrap;html=1;" parent="1" vertex="1">
          <mxGeometry x="1080" y="660" width="180" height="80" as="geometry" />
        </mxCell>
        <mxCell id="Sf9USXBAgHXZiCnGcC-k-60" style="edgeStyle=orthogonalEdgeStyle;rounded=0;orthogonalLoop=1;jettySize=auto;html=1;entryX=0.5;entryY=1;entryDx=0;entryDy=0;" parent="1" source="Sf9USXBAgHXZiCnGcC-k-54" target="Sf9USXBAgHXZiCnGcC-k-57" edge="1">
          <mxGeometry relative="1" as="geometry" />
        </mxCell>
        <mxCell id="Sf9USXBAgHXZiCnGcC-k-54" value="first = count" style="rounded=0;whiteSpace=wrap;html=1;" parent="1" vertex="1">
          <mxGeometry x="1110" y="780" width="120" height="60" as="geometry" />
        </mxCell>
        <mxCell id="Sf9USXBAgHXZiCnGcC-k-61" value="Yes" style="edgeStyle=orthogonalEdgeStyle;rounded=0;orthogonalLoop=1;jettySize=auto;html=1;" parent="1" source="Sf9USXBAgHXZiCnGcC-k-55" target="Sf9USXBAgHXZiCnGcC-k-62" edge="1">
          <mxGeometry relative="1" as="geometry">
            <mxPoint x="1030" y="560" as="targetPoint" />
            <Array as="points">
              <mxPoint x="960" y="540" />
            </Array>
          </mxGeometry>
        </mxCell>
        <mxCell id="Sf9USXBAgHXZiCnGcC-k-66" value="No" style="edgeStyle=orthogonalEdgeStyle;rounded=0;orthogonalLoop=1;jettySize=auto;html=1;entryX=1;entryY=0.25;entryDx=0;entryDy=0;" parent="1" source="Sf9USXBAgHXZiCnGcC-k-55" target="Sf9USXBAgHXZiCnGcC-k-57" edge="1">
          <mxGeometry relative="1" as="geometry">
            <Array as="points">
              <mxPoint x="1060" y="685" />
            </Array>
          </mxGeometry>
        </mxCell>
        <mxCell id="Sf9USXBAgHXZiCnGcC-k-55" value="if i1 == 5 or i2 == 5 or i3 == 5" style="rhombus;whiteSpace=wrap;html=1;" parent="1" vertex="1">
          <mxGeometry x="1020" y="500" width="200" height="80" as="geometry" />
        </mxCell>
        <mxCell id="Sf9USXBAgHXZiCnGcC-k-64" style="edgeStyle=orthogonalEdgeStyle;rounded=0;orthogonalLoop=1;jettySize=auto;html=1;entryX=0;entryY=0.5;entryDx=0;entryDy=0;" parent="1" source="Sf9USXBAgHXZiCnGcC-k-57" target="Sf9USXBAgHXZiCnGcC-k-36" edge="1">
          <mxGeometry relative="1" as="geometry">
            <Array as="points">
              <mxPoint x="860" y="700" />
              <mxPoint x="860" y="480" />
              <mxPoint x="1240" y="480" />
              <mxPoint x="1240" y="600" />
            </Array>
          </mxGeometry>
        </mxCell>
        <mxCell id="Sf9USXBAgHXZiCnGcC-k-57" value="i3+=1" style="rounded=0;whiteSpace=wrap;html=1;" parent="1" vertex="1">
          <mxGeometry x="900" y="670" width="120" height="60" as="geometry" />
        </mxCell>
        <mxCell id="Sf9USXBAgHXZiCnGcC-k-72" style="edgeStyle=orthogonalEdgeStyle;rounded=0;orthogonalLoop=1;jettySize=auto;html=1;entryX=1;entryY=0;entryDx=0;entryDy=0;" parent="1" source="Sf9USXBAgHXZiCnGcC-k-59" target="Sf9USXBAgHXZiCnGcC-k-28" edge="1">
          <mxGeometry relative="1" as="geometry">
            <Array as="points">
              <mxPoint x="1750" y="360" />
              <mxPoint x="1383" y="360" />
            </Array>
          </mxGeometry>
        </mxCell>
        <mxCell id="Sf9USXBAgHXZiCnGcC-k-59" value="i1+=1" style="rounded=0;whiteSpace=wrap;html=1;" parent="1" vertex="1">
          <mxGeometry x="1690" y="420" width="120" height="60" as="geometry" />
        </mxCell>
        <mxCell id="Sf9USXBAgHXZiCnGcC-k-63" value="" style="edgeStyle=orthogonalEdgeStyle;rounded=0;orthogonalLoop=1;jettySize=auto;html=1;" parent="1" source="Sf9USXBAgHXZiCnGcC-k-62" target="Sf9USXBAgHXZiCnGcC-k-57" edge="1">
          <mxGeometry relative="1" as="geometry" />
        </mxCell>
        <mxCell id="Sf9USXBAgHXZiCnGcC-k-62" value="last = count" style="rounded=0;whiteSpace=wrap;html=1;" parent="1" vertex="1">
          <mxGeometry x="900" y="580" width="120" height="60" as="geometry" />
        </mxCell>
        <mxCell id="Sf9USXBAgHXZiCnGcC-k-70" style="edgeStyle=orthogonalEdgeStyle;rounded=0;orthogonalLoop=1;jettySize=auto;html=1;entryX=1;entryY=0.5;entryDx=0;entryDy=0;" parent="1" source="Sf9USXBAgHXZiCnGcC-k-68" target="Sf9USXBAgHXZiCnGcC-k-32" edge="1">
          <mxGeometry relative="1" as="geometry">
            <Array as="points">
              <mxPoint x="1680" y="600" />
              <mxPoint x="1680" y="500" />
            </Array>
          </mxGeometry>
        </mxCell>
        <mxCell id="Sf9USXBAgHXZiCnGcC-k-68" value="i2+=1" style="rounded=0;whiteSpace=wrap;html=1;" parent="1" vertex="1">
          <mxGeometry x="1530" y="570" width="120" height="60" as="geometry" />
        </mxCell>
        <mxCell id="Sf9USXBAgHXZiCnGcC-k-77" value="" style="edgeStyle=orthogonalEdgeStyle;rounded=0;orthogonalLoop=1;jettySize=auto;html=1;" parent="1" source="Sf9USXBAgHXZiCnGcC-k-74" target="Sf9USXBAgHXZiCnGcC-k-76" edge="1">
          <mxGeometry relative="1" as="geometry" />
        </mxCell>
        <mxCell id="Sf9USXBAgHXZiCnGcC-k-74" value="first, count" style="shape=parallelogram;perimeter=parallelogramPerimeter;whiteSpace=wrap;html=1;fixedSize=1;" parent="1" vertex="1">
          <mxGeometry x="1100" y="380" width="120" height="60" as="geometry" />
        </mxCell>
        <mxCell id="Sf9USXBAgHXZiCnGcC-k-76" value="Кінець" style="rounded=1;whiteSpace=wrap;html=1;" parent="1" vertex="1">
          <mxGeometry x="950" y="380" width="120" height="60" as="geometry" />
        </mxCell>
        <mxCell id="Sf9USXBAgHXZiCnGcC-k-80" value="" style="edgeStyle=orthogonalEdgeStyle;rounded=0;orthogonalLoop=1;jettySize=auto;html=1;" parent="1" source="Sf9USXBAgHXZiCnGcC-k-78" target="Sf9USXBAgHXZiCnGcC-k-79" edge="1">
          <mxGeometry relative="1" as="geometry" />
        </mxCell>
        <mxCell id="Sf9USXBAgHXZiCnGcC-k-78" value="Початок" style="rounded=1;whiteSpace=wrap;html=1;" parent="1" vertex="1">
          <mxGeometry x="2190" y="140" width="120" height="60" as="geometry" />
        </mxCell>
        <mxCell id="Sf9USXBAgHXZiCnGcC-k-82" value="" style="edgeStyle=orthogonalEdgeStyle;rounded=0;orthogonalLoop=1;jettySize=auto;html=1;" parent="1" source="Sf9USXBAgHXZiCnGcC-k-79" target="Sf9USXBAgHXZiCnGcC-k-81" edge="1">
          <mxGeometry relative="1" as="geometry" />
        </mxCell>
        <mxCell id="Sf9USXBAgHXZiCnGcC-k-79" value="txt, golosni, res" style="rounded=0;whiteSpace=wrap;html=1;" parent="1" vertex="1">
          <mxGeometry x="2190" y="220" width="120" height="60" as="geometry" />
        </mxCell>
        <mxCell id="Sf9USXBAgHXZiCnGcC-k-86" value="Yes" style="edgeStyle=orthogonalEdgeStyle;rounded=0;orthogonalLoop=1;jettySize=auto;html=1;" parent="1" source="Sf9USXBAgHXZiCnGcC-k-81" target="Sf9USXBAgHXZiCnGcC-k-85" edge="1">
          <mxGeometry relative="1" as="geometry" />
        </mxCell>
        <mxCell id="Sf9USXBAgHXZiCnGcC-k-88" style="edgeStyle=orthogonalEdgeStyle;rounded=0;orthogonalLoop=1;jettySize=auto;html=1;" parent="1" source="Sf9USXBAgHXZiCnGcC-k-81" target="Sf9USXBAgHXZiCnGcC-k-90" edge="1">
          <mxGeometry relative="1" as="geometry">
            <mxPoint x="2250" y="420" as="targetPoint" />
          </mxGeometry>
        </mxCell>
        <mxCell id="Sf9USXBAgHXZiCnGcC-k-81" value="Якщо немає голосних" style="rhombus;whiteSpace=wrap;html=1;" parent="1" vertex="1">
          <mxGeometry x="2195" y="310" width="110" height="80" as="geometry" />
        </mxCell>
        <mxCell id="Sf9USXBAgHXZiCnGcC-k-83" value="No" style="edgeStyle=orthogonalEdgeStyle;rounded=0;orthogonalLoop=1;jettySize=auto;html=1;entryX=0.5;entryY=0;entryDx=0;entryDy=0;" parent="1" source="Sf9USXBAgHXZiCnGcC-k-81" target="Sf9USXBAgHXZiCnGcC-k-81" edge="1">
          <mxGeometry relative="1" as="geometry">
            <Array as="points">
              <mxPoint x="2340" y="350" />
              <mxPoint x="2340" y="290" />
              <mxPoint x="2280" y="290" />
              <mxPoint x="2280" y="310" />
            </Array>
          </mxGeometry>
        </mxCell>
        <mxCell id="Sf9USXBAgHXZiCnGcC-k-84" value="len(txt)" style="text;html=1;align=center;verticalAlign=middle;whiteSpace=wrap;rounded=0;" parent="1" vertex="1">
          <mxGeometry x="2330" y="310" width="60" height="30" as="geometry" />
        </mxCell>
        <mxCell id="Sf9USXBAgHXZiCnGcC-k-87" style="edgeStyle=orthogonalEdgeStyle;rounded=0;orthogonalLoop=1;jettySize=auto;html=1;entryX=0.5;entryY=0;entryDx=0;entryDy=0;" parent="1" source="Sf9USXBAgHXZiCnGcC-k-85" target="Sf9USXBAgHXZiCnGcC-k-81" edge="1">
          <mxGeometry relative="1" as="geometry">
            <Array as="points">
              <mxPoint x="2090" y="290" />
              <mxPoint x="2220" y="290" />
              <mxPoint x="2220" y="310" />
            </Array>
          </mxGeometry>
        </mxCell>
        <mxCell id="Sf9USXBAgHXZiCnGcC-k-85" value="res+=i" style="whiteSpace=wrap;html=1;" parent="1" vertex="1">
          <mxGeometry x="2030" y="320" width="120" height="60" as="geometry" />
        </mxCell>
        <mxCell id="Sf9USXBAgHXZiCnGcC-k-89" value="len(txt)" style="text;html=1;align=center;verticalAlign=middle;whiteSpace=wrap;rounded=0;" parent="1" vertex="1">
          <mxGeometry x="2150" y="350" width="60" height="30" as="geometry" />
        </mxCell>
        <mxCell id="Sf9USXBAgHXZiCnGcC-k-92" value="" style="edgeStyle=orthogonalEdgeStyle;rounded=0;orthogonalLoop=1;jettySize=auto;html=1;" parent="1" source="Sf9USXBAgHXZiCnGcC-k-90" target="Sf9USXBAgHXZiCnGcC-k-91" edge="1">
          <mxGeometry relative="1" as="geometry" />
        </mxCell>
        <mxCell id="Sf9USXBAgHXZiCnGcC-k-90" value="res" style="shape=parallelogram;perimeter=parallelogramPerimeter;whiteSpace=wrap;html=1;fixedSize=1;" parent="1" vertex="1">
          <mxGeometry x="2190" y="410" width="120" height="60" as="geometry" />
        </mxCell>
        <mxCell id="Sf9USXBAgHXZiCnGcC-k-91" value="Кінець" style="rounded=1;whiteSpace=wrap;html=1;" parent="1" vertex="1">
          <mxGeometry x="2190" y="500" width="120" height="60" as="geometry" />
        </mxCell>
        <mxCell id="Sf9USXBAgHXZiCnGcC-k-95" value="" style="edgeStyle=orthogonalEdgeStyle;rounded=0;orthogonalLoop=1;jettySize=auto;html=1;" parent="1" source="Sf9USXBAgHXZiCnGcC-k-93" target="Sf9USXBAgHXZiCnGcC-k-94" edge="1">
          <mxGeometry relative="1" as="geometry" />
        </mxCell>
        <mxCell id="Sf9USXBAgHXZiCnGcC-k-93" value="Початок" style="rounded=1;whiteSpace=wrap;html=1;" parent="1" vertex="1">
          <mxGeometry x="2160" y="610" width="120" height="60" as="geometry" />
        </mxCell>
        <mxCell id="Sf9USXBAgHXZiCnGcC-k-97" value="" style="edgeStyle=orthogonalEdgeStyle;rounded=0;orthogonalLoop=1;jettySize=auto;html=1;" parent="1" source="Sf9USXBAgHXZiCnGcC-k-94" target="Sf9USXBAgHXZiCnGcC-k-96" edge="1">
          <mxGeometry relative="1" as="geometry" />
        </mxCell>
        <mxCell id="Sf9USXBAgHXZiCnGcC-k-94" value="txt, count, k" style="rounded=0;whiteSpace=wrap;html=1;" parent="1" vertex="1">
          <mxGeometry x="2160" y="700" width="120" height="60" as="geometry" />
        </mxCell>
        <mxCell id="Sf9USXBAgHXZiCnGcC-k-99" value="" style="edgeStyle=orthogonalEdgeStyle;rounded=0;orthogonalLoop=1;jettySize=auto;html=1;" parent="1" source="Sf9USXBAgHXZiCnGcC-k-96" target="Sf9USXBAgHXZiCnGcC-k-98" edge="1">
          <mxGeometry relative="1" as="geometry" />
        </mxCell>
        <UserObject label="list(txt.split())" link="txt = list(txt.split())" id="Sf9USXBAgHXZiCnGcC-k-96">
          <mxCell style="whiteSpace=wrap;html=1;rounded=0;" parent="1" vertex="1">
            <mxGeometry x="2160" y="790" width="120" height="60" as="geometry" />
          </mxCell>
        </UserObject>
        <mxCell id="Sf9USXBAgHXZiCnGcC-k-101" value="Yes" style="edgeStyle=orthogonalEdgeStyle;rounded=0;orthogonalLoop=1;jettySize=auto;html=1;" parent="1" source="Sf9USXBAgHXZiCnGcC-k-98" target="Sf9USXBAgHXZiCnGcC-k-100" edge="1">
          <mxGeometry relative="1" as="geometry" />
        </mxCell>
        <mxCell id="Sf9USXBAgHXZiCnGcC-k-105" value="" style="edgeStyle=orthogonalEdgeStyle;rounded=0;orthogonalLoop=1;jettySize=auto;html=1;" parent="1" source="Sf9USXBAgHXZiCnGcC-k-98" target="Sf9USXBAgHXZiCnGcC-k-103" edge="1">
          <mxGeometry relative="1" as="geometry" />
        </mxCell>
        <mxCell id="Sf9USXBAgHXZiCnGcC-k-98" value="k==len(i)" style="rhombus;whiteSpace=wrap;html=1;" parent="1" vertex="1">
          <mxGeometry x="2150" y="880" width="140" height="80" as="geometry" />
        </mxCell>
        <mxCell id="Sf9USXBAgHXZiCnGcC-k-102" style="edgeStyle=orthogonalEdgeStyle;rounded=0;orthogonalLoop=1;jettySize=auto;html=1;entryX=1;entryY=0;entryDx=0;entryDy=0;" parent="1" source="Sf9USXBAgHXZiCnGcC-k-100" target="Sf9USXBAgHXZiCnGcC-k-98" edge="1">
          <mxGeometry relative="1" as="geometry">
            <Array as="points">
              <mxPoint x="2380" y="880" />
              <mxPoint x="2255" y="880" />
            </Array>
          </mxGeometry>
        </mxCell>
        <mxCell id="Sf9USXBAgHXZiCnGcC-k-100" value="count+=1" style="whiteSpace=wrap;html=1;" parent="1" vertex="1">
          <mxGeometry x="2340" y="890" width="120" height="60" as="geometry" />
        </mxCell>
        <mxCell id="Sf9USXBAgHXZiCnGcC-k-108" value="" style="edgeStyle=orthogonalEdgeStyle;rounded=0;orthogonalLoop=1;jettySize=auto;html=1;" parent="1" source="Sf9USXBAgHXZiCnGcC-k-103" target="Sf9USXBAgHXZiCnGcC-k-107" edge="1">
          <mxGeometry relative="1" as="geometry" />
        </mxCell>
        <mxCell id="Sf9USXBAgHXZiCnGcC-k-103" value="count" style="shape=parallelogram;perimeter=parallelogramPerimeter;whiteSpace=wrap;html=1;fixedSize=1;" parent="1" vertex="1">
          <mxGeometry x="2160" y="980" width="120" height="60" as="geometry" />
        </mxCell>
        <mxCell id="Sf9USXBAgHXZiCnGcC-k-104" value="No" style="edgeStyle=orthogonalEdgeStyle;rounded=0;orthogonalLoop=1;jettySize=auto;html=1;entryX=0;entryY=0;entryDx=0;entryDy=0;exitX=0;exitY=0.5;exitDx=0;exitDy=0;" parent="1" source="Sf9USXBAgHXZiCnGcC-k-98" target="Sf9USXBAgHXZiCnGcC-k-98" edge="1">
          <mxGeometry relative="1" as="geometry">
            <Array as="points">
              <mxPoint x="2080" y="920" />
              <mxPoint x="2080" y="880" />
              <mxPoint x="2185" y="880" />
            </Array>
          </mxGeometry>
        </mxCell>
        <mxCell id="Sf9USXBAgHXZiCnGcC-k-107" value="Кінець" style="rounded=1;whiteSpace=wrap;html=1;" parent="1" vertex="1">
          <mxGeometry x="2160" y="1070" width="120" height="60" as="geometry" />
        </mxCell>
        <mxCell id="RplDnqUG1hGOIaIeJ67t-4" value="" style="edgeStyle=orthogonalEdgeStyle;rounded=0;orthogonalLoop=1;jettySize=auto;html=1;" edge="1" parent="1" source="RplDnqUG1hGOIaIeJ67t-1" target="RplDnqUG1hGOIaIeJ67t-3">
          <mxGeometry relative="1" as="geometry" />
        </mxCell>
        <mxCell id="RplDnqUG1hGOIaIeJ67t-1" value="Початок" style="rounded=1;whiteSpace=wrap;html=1;" vertex="1" parent="1">
          <mxGeometry x="290" y="810" width="120" height="60" as="geometry" />
        </mxCell>
        <mxCell id="RplDnqUG1hGOIaIeJ67t-6" value="" style="edgeStyle=orthogonalEdgeStyle;rounded=0;orthogonalLoop=1;jettySize=auto;html=1;" edge="1" parent="1" source="RplDnqUG1hGOIaIeJ67t-3" target="RplDnqUG1hGOIaIeJ67t-5">
          <mxGeometry relative="1" as="geometry" />
        </mxCell>
        <mxCell id="RplDnqUG1hGOIaIeJ67t-3" value="palindrom" style="rounded=0;whiteSpace=wrap;html=1;" vertex="1" parent="1">
          <mxGeometry x="290" y="890" width="120" height="60" as="geometry" />
        </mxCell>
        <mxCell id="RplDnqUG1hGOIaIeJ67t-9" value="" style="edgeStyle=orthogonalEdgeStyle;rounded=0;orthogonalLoop=1;jettySize=auto;html=1;" edge="1" parent="1" source="RplDnqUG1hGOIaIeJ67t-5" target="RplDnqUG1hGOIaIeJ67t-8">
          <mxGeometry relative="1" as="geometry" />
        </mxCell>
        <mxCell id="RplDnqUG1hGOIaIeJ67t-5" value="result" style="rounded=0;whiteSpace=wrap;html=1;" vertex="1" parent="1">
          <mxGeometry x="290" y="970" width="120" height="60" as="geometry" />
        </mxCell>
        <mxCell id="RplDnqUG1hGOIaIeJ67t-13" value="" style="edgeStyle=orthogonalEdgeStyle;rounded=0;orthogonalLoop=1;jettySize=auto;html=1;" edge="1" parent="1" source="RplDnqUG1hGOIaIeJ67t-8" target="RplDnqUG1hGOIaIeJ67t-12">
          <mxGeometry relative="1" as="geometry" />
        </mxCell>
        <mxCell id="RplDnqUG1hGOIaIeJ67t-14" value="" style="edgeStyle=orthogonalEdgeStyle;rounded=0;orthogonalLoop=1;jettySize=auto;html=1;" edge="1" parent="1" source="RplDnqUG1hGOIaIeJ67t-8" target="RplDnqUG1hGOIaIeJ67t-11">
          <mxGeometry relative="1" as="geometry" />
        </mxCell>
        <mxCell id="RplDnqUG1hGOIaIeJ67t-8" value="result" style="rhombus;whiteSpace=wrap;html=1;rounded=0;" vertex="1" parent="1">
          <mxGeometry x="285" y="1060" width="130" height="80" as="geometry" />
        </mxCell>
        <mxCell id="RplDnqUG1hGOIaIeJ67t-10" value="result" style="ellipse;whiteSpace=wrap;html=1;aspect=fixed;" vertex="1" parent="1">
          <mxGeometry x="330" y="1080" width="40" height="40" as="geometry" />
        </mxCell>
        <mxCell id="RplDnqUG1hGOIaIeJ67t-16" style="edgeStyle=orthogonalEdgeStyle;rounded=0;orthogonalLoop=1;jettySize=auto;html=1;entryX=1;entryY=0.5;entryDx=0;entryDy=0;" edge="1" parent="1" target="RplDnqUG1hGOIaIeJ67t-15">
          <mxGeometry relative="1" as="geometry">
            <mxPoint x="520" y="1120" as="sourcePoint" />
            <Array as="points">
              <mxPoint x="520" y="1180" />
            </Array>
          </mxGeometry>
        </mxCell>
        <mxCell id="RplDnqUG1hGOIaIeJ67t-11" value="немає такого числа." style="shape=parallelogram;perimeter=parallelogramPerimeter;whiteSpace=wrap;html=1;fixedSize=1;" vertex="1" parent="1">
          <mxGeometry x="440" y="1070" width="180" height="60" as="geometry" />
        </mxCell>
        <mxCell id="RplDnqUG1hGOIaIeJ67t-17" style="edgeStyle=orthogonalEdgeStyle;rounded=0;orthogonalLoop=1;jettySize=auto;html=1;entryX=0;entryY=0.5;entryDx=0;entryDy=0;" edge="1" parent="1" target="RplDnqUG1hGOIaIeJ67t-15">
          <mxGeometry relative="1" as="geometry">
            <mxPoint x="190" y="1120" as="sourcePoint" />
            <Array as="points">
              <mxPoint x="190" y="1180" />
            </Array>
          </mxGeometry>
        </mxCell>
        <mxCell id="RplDnqUG1hGOIaIeJ67t-12" value="result" style="shape=parallelogram;perimeter=parallelogramPerimeter;whiteSpace=wrap;html=1;fixedSize=1;" vertex="1" parent="1">
          <mxGeometry x="140" y="1070" width="120" height="60" as="geometry" />
        </mxCell>
        <mxCell id="RplDnqUG1hGOIaIeJ67t-15" value="Кінець" style="rounded=1;whiteSpace=wrap;html=1;" vertex="1" parent="1">
          <mxGeometry x="290" y="1150" width="120" height="60" as="geometry" />
        </mxCell>
        <mxCell id="RplDnqUG1hGOIaIeJ67t-18" value="result" style="ellipse;whiteSpace=wrap;html=1;aspect=fixed;" vertex="1" parent="1">
          <mxGeometry x="330" y="980" width="40" height="40" as="geometry" />
        </mxCell>
        <mxCell id="RplDnqUG1hGOIaIeJ67t-22" style="edgeStyle=orthogonalEdgeStyle;rounded=0;orthogonalLoop=1;jettySize=auto;html=1;entryX=0.5;entryY=0;entryDx=0;entryDy=0;" edge="1" parent="1" source="RplDnqUG1hGOIaIeJ67t-19" target="RplDnqUG1hGOIaIeJ67t-21">
          <mxGeometry relative="1" as="geometry" />
        </mxCell>
        <mxCell id="RplDnqUG1hGOIaIeJ67t-19" value="result" style="ellipse;whiteSpace=wrap;html=1;aspect=fixed;" vertex="1" parent="1">
          <mxGeometry x="680" y="820" width="40" height="40" as="geometry" />
        </mxCell>
        <mxCell id="RplDnqUG1hGOIaIeJ67t-23" value="range(100, 1000)" style="edgeStyle=orthogonalEdgeStyle;rounded=0;orthogonalLoop=1;jettySize=auto;html=1;entryX=0.5;entryY=0;entryDx=0;entryDy=0;" edge="1" parent="1" source="RplDnqUG1hGOIaIeJ67t-21" target="RplDnqUG1hGOIaIeJ67t-21">
          <mxGeometry relative="1" as="geometry">
            <mxPoint x="800" y="980" as="targetPoint" />
            <Array as="points">
              <mxPoint x="790" y="930" />
              <mxPoint x="790" y="880" />
              <mxPoint x="700" y="880" />
            </Array>
          </mxGeometry>
        </mxCell>
        <mxCell id="RplDnqUG1hGOIaIeJ67t-31" value="No" style="edgeLabel;html=1;align=center;verticalAlign=middle;resizable=0;points=[];" vertex="1" connectable="0" parent="RplDnqUG1hGOIaIeJ67t-23">
          <mxGeometry x="-0.7143" y="-4" relative="1" as="geometry">
            <mxPoint y="1" as="offset" />
          </mxGeometry>
        </mxCell>
        <mxCell id="RplDnqUG1hGOIaIeJ67t-24" value="Yes" style="edgeStyle=orthogonalEdgeStyle;rounded=0;orthogonalLoop=1;jettySize=auto;html=1;entryX=1;entryY=0.5;entryDx=0;entryDy=0;" edge="1" parent="1" source="RplDnqUG1hGOIaIeJ67t-21" target="RplDnqUG1hGOIaIeJ67t-26">
          <mxGeometry relative="1" as="geometry">
            <mxPoint x="610" y="980" as="targetPoint" />
            <Array as="points">
              <mxPoint x="600" y="930" />
              <mxPoint x="600" y="930" />
            </Array>
          </mxGeometry>
        </mxCell>
        <mxCell id="RplDnqUG1hGOIaIeJ67t-21" value="X + Y == N" style="rhombus;whiteSpace=wrap;html=1;fontStyle=0" vertex="1" parent="1">
          <mxGeometry x="635" y="890" width="130" height="80" as="geometry" />
        </mxCell>
        <mxCell id="RplDnqUG1hGOIaIeJ67t-26" value="result = X" style="rounded=0;whiteSpace=wrap;html=1;" vertex="1" parent="1">
          <mxGeometry x="460" y="900" width="120" height="60" as="geometry" />
        </mxCell>
      </root>
    </mxGraphModel>
  </diagram>
</mxfile>
